<svg width="24" height="24" viewBox="0 0 24 24" fill="none" xmlns="http://www.w3.org/2000/svg">
	<path fill-rule="evenodd" clip-rule="evenodd" d="M5.73149 21.9995H8.62776V15.5732C8.62776 14.841 9.18459 14.2506 9.85306 14.2506H14.1465C14.815 14.2506 15.3719 14.841 15.3719 15.5732V22H18.2681C19.4934 22 20.4959 20.9179 20.4959 19.5954V11.0589H21.5591C21.7413 11.0589 21.9137 10.9384 21.9744 10.7417C22.0351 10.5557 21.9842 10.3484 21.8431 10.2168L13.4374 2.56573C12.5971 1.81142 11.4021 1.81142 10.5617 2.56573L2.15649 10.2173C2.01449 10.3484 1.96403 10.5561 2.02521 10.7422C2.08594 10.9388 2.24803 11.0593 2.44049 11.0593H3.5037V19.5958C3.50326 20.9175 4.50619 21.9995 5.73149 21.9995Z" fill="#8B96AA"/>
</svg>
